Coordinates
version=1
nRows=29
nColumns=24
inDegrees=yes

Units are S.I. units (second, meters, Newtons, ...)
Angles are in degrees.

endheader
time	pelvis_tilt	pelvis_list	pelvis_rotation	pelvis_tx	pelvis_ty	pelvis_tz	hip_flexion_r	hip_adduction_r	hip_rotation_r	knee_angle_r	ankle_angle_r	subtalar_angle_r	mtp_angle_r	hip_flexion_l	hip_adduction_l	hip_rotation_l	knee_angle_l	ankle_angle_l	subtalar_angle_l	mtp_angle_l	lumbar_extension	lumbar_bending	lumbar_rotation
      0.79500000	      7.48945161	     -7.17738742	      0.66395676	     -0.47216218	      0.89325043	      0.02267851	    -27.81061724	      8.54373620	     -2.63364686	    -10.74289200	     16.24534678	      2.92907676	     44.07995565	     15.53154850	     -5.17213171	     -6.06366084	     -3.85633677	     11.07395286	      1.55486445	     26.34072444	    -18.85651263	      7.13253951	      0.94736884
      0.80000000	      7.33881452	     -7.02126988	      0.70432861	     -0.46420195	      0.89241075	      0.02203649	    -27.59000827	      8.27773573	     -2.58767308	    -11.77150992	     15.87295046	      3.14935748	     44.96980251	     15.76050743	     -4.91368218	     -5.63059129	     -4.61074439	     10.83382216	      0.99525126	     26.56833712	    -18.63687902	      6.95902122	      0.68548952
      0.80500000	      7.18119697	     -6.83903398	      0.74333874	     -0.45628711	      0.89164755	      0.02138177	    -27.28066977	      7.99019615	     -2.54567238	    -12.92558293	     15.38456248	      3.15975928	     46.84804911	     16.01017537	     -4.62593322	     -5.20272407	     -5.45197313	     10.44807768	      0.43492805	     27.20853117	    -18.41486085	      6.75495138	      0.45802139
      0.81000000	      7.00399815	     -6.64729626	      0.79427261	     -0.44838754	      0.89091225	      0.02067879	    -26.90331271	      7.69471990	     -2.47951517	    -14.14899025	     14.84442329	      3.36716765	     48.07326859	     16.33081315	     -4.31684766	     -4.77093770	     -6.45224232	     10.12973472	     -0.21239353	     27.63570076	    -18.17453271	      6.54520036	      0.18791855
      0.81500000	      6.85583693	     -6.40409204	      0.81760703	     -0.44053490	      0.89033027	      0.02003683	    -26.46968540	      7.34899107	     -2.38957226	    -15.50463620	     14.18000330	      3.20711985	     50.65073041	     16.60945053	     -3.96703522	     -4.42468634	     -7.48129410	      9.65469149	     -0.79355426	     28.67590445	    -17.97654962	      6.26341030	     -0.02440896
      0.82000000	      6.59667869	     -6.17165094	      0.93858969	     -0.43276539	      0.88960039	      0.01917807	    -25.81979370	      7.04609500	     -2.42450132	    -17.03426581	     13.60363951	      3.40602536	     51.32059212	     17.06989933	     -3.58140591	     -3.86168865	     -8.62880695	      9.25324982	     -1.45637058	     28.85360146	    -17.65332364	      6.02946206	     -0.35927909
      0.82500000	      6.35307537	     -5.91905188	      1.15441517	     -0.42504055	      0.88895013	      0.01827062	    -25.14647321	      6.78726176	     -2.49621566	    -18.57844573	     12.71040176	      3.05666899	     53.83463392	     17.55793029	     -3.15501910	     -3.25032913	     -9.86411592	      8.74533263	     -2.05452131	     29.73457359	    -17.34540058	      5.78391695	     -0.79889103
      0.83000000	      6.04546062	     -5.65074906	      1.27665416	     -0.41735463	      0.88829871	      0.01739074	    -24.29698357	      6.45355654	     -2.51091064	    -20.32308498	     11.92117632	      3.16853322	     54.87454132	     18.10526351	     -2.71967439	     -2.73897757	    -11.14392533	      8.34675580	     -2.75691417	     30.01537849	    -16.98123692	      5.50581709	     -1.16070683
      0.83500000	      5.80102292	     -5.33201646	      1.45363527	     -0.40971611	      0.88775615	      0.01648440	    -23.44461307	      6.10410082	     -2.60226056	    -22.15652994	     10.94630068	      2.78164898	     57.46937932	     18.57688138	     -2.22418889	     -2.21205280	    -12.41932694	      7.97231651	     -3.31251018	     30.79061893	    -16.69090599	      5.17443833	     -1.54344971
      0.84000000	      5.48230797	     -5.03566344	      1.60014837	     -0.40216944	      0.88719119	      0.01554406	    -22.41005009	      5.75033044	     -2.66158461	    -24.15887040	      9.96456411	      2.77453989	     58.25012595	     19.12569357	     -1.74470320	     -1.69089908	    -13.70694808	      7.59605524	     -3.92946501	     30.92274634	    -16.33078261	      4.86784237	     -1.88965559
      0.84500000	      5.20342815	     -4.70143095	      1.81567898	     -0.39464081	      0.88667305	      0.01456897	    -21.36108899	      5.39071931	     -2.82824930	    -26.22489607	      8.79315172	      2.32495806	     60.38766567	     19.61914801	     -1.21479851	     -1.14240444	    -14.97954025	      7.31315172	     -4.32916019	     31.35349642	    -16.01411186	      4.52372894	     -2.27483425
      0.85000000	      4.91274887	     -4.31699278	      1.87525267	     -0.38715331	      0.88622546	      0.01374393	    -20.20001268	      4.91566173	     -2.84221050	    -28.46839913	      7.73325286	      2.12846413	     60.93311877	     20.06043374	     -0.66903985	     -0.78339525	    -16.18345135	      7.11712446	     -4.96510509	     31.37028598	    -15.70315494	      4.09237302	     -2.52896054
      0.85500000	      4.66239858	     -3.93489503	      2.02575577	     -0.37968256	      0.88583707	      0.01286589	    -19.05270129	      4.47812857	     -2.96322243	    -30.69665822	      6.35743685	      1.57859524	     63.08407508	     20.45348280	     -0.11711299	     -0.41984550	    -17.37003489	      6.96743242	     -5.31820811	     31.57842574	    -15.43408065	      3.67566436	     -2.88101236
      0.86000000	      4.41289491	     -3.51872434	      2.11897114	     -0.37230326	      0.88546179	      0.01203378	    -17.81479367	      3.98118842	     -3.04373032	    -33.08119819	      5.10960195	      1.12580979	     63.28270367	     20.79312947	      0.45818788	     -0.10986937	    -18.47002686	      6.91540391	     -5.77944840	     31.53232795	    -15.18243628	      3.21056769	     -3.14728535
      0.86500000	      4.15380479	     -3.11239206	      2.20472282	     -0.36495852	      0.88511771	      0.01126428	    -16.52238930	      3.49638088	     -3.10593100	    -35.48463819	      3.73598685	      0.58611487	     63.60610442	     21.11131365	      1.00649474	      0.13307480	    -19.51726793	      6.92783099	     -6.10153353	     31.46008141	    -14.92483893	      2.74812991	     -3.41703929
      0.87000000	      3.93374447	     -2.65449023	      2.24516830	     -0.35762587	      0.88486058	      0.01056735	    -15.22680277	      2.94324834	     -3.15351629	    -37.92753652	      2.37065040	     -0.07918821	     63.80544991	     21.31770846	      1.58294234	      0.27877950	    -20.45005876	      7.03337458	     -6.39326763	     31.34412722	    -14.71461757	      2.21680980	     -3.63548040
      0.87500000	      3.76346978	     -2.15630226	      2.25586604	     -0.35031638	      0.88469720	      0.00992498	    -13.95372924	      2.34034282	     -3.19235188	    -40.37715138	      1.05870651	     -0.85614045	     63.78253617	     21.40264364	      2.17979487	      0.34851367	    -21.26549495	      7.24596255	     -6.64157741	     31.22161004	    -14.56669312	      1.63511517	     -3.82096860
      0.88000000	      3.54868102	     -1.70671341	      2.27300095	     -0.34310646	      0.88450876	      0.00930318	    -12.59243022	      1.79426222	     -3.20442588	    -42.81304403	     -0.31682355	     -1.65015915	     63.54975571	     21.52219412	      2.72024535	      0.39975268	    -22.04507081	      7.49693002	     -6.79415434	     30.99021959	    -14.37668454	      1.10634078	     -4.00634534
      0.88500000	      3.31296027	     -1.23766904	      2.28678395	     -0.33590716	      0.88431225	      0.00872195	    -11.18907709	      1.22916667	     -3.22088503	    -45.23250558	     -1.49869660	     -2.47074118	     62.74835191	     21.61517236	      3.26955558	      0.41337227	    -22.74415675	      7.91947979	     -6.79329591	     30.47277833	    -14.16186385	      0.55086642	     -4.20915926
      0.89000000	      3.13447710	     -0.77048360	      2.24885027	     -0.32874737	      0.88427825	      0.00824400	     -9.83047521	      0.66868368	     -3.16844126	    -47.59415800	     -2.59864541	     -3.34595348	     61.39788185	     21.58203285	      3.78492532	      0.34078903	    -23.32603218	      8.38683729	     -6.76805356	     29.84385666	    -14.01594735	     -0.01245424	     -4.35429306
      0.89500000	      3.01062493	     -0.29248908	      2.20528326	     -0.32161662	      0.88439900	      0.00778684	     -8.52752892	      0.10166125	     -3.10890716	    -49.88202787	     -3.49978497	     -4.16652894	     59.51883257	     21.42251319	      4.30179610	      0.24874756	    -23.78033868	      8.89679755	     -6.68582355	     29.10092332	    -13.93311213	     -0.58733999	     -4.43257961
      0.90000000	      2.89257883	      0.16464564	      2.13890773	     -0.31453628	      0.88460886	      0.00740098	     -7.21708727	     -0.43595465	     -3.01212476	    -52.09536387	     -4.24903874	     -4.99182603	     57.70155532	     21.21440161	      4.77942271	      0.11074516	    -24.15011035	      9.44036689	     -6.58365172	     28.48019927	    -13.86008584	     -1.14321977	     -4.55479174
      0.90500000	      2.79835266	      0.59898952	      2.06336902	     -0.30744460	      0.88495346	      0.00705799	     -5.94441428	     -0.93904935	     -2.89439782	    -54.19198131	     -4.77269456	     -5.75826640	     55.68309334	     20.92550596	      5.22213102	     -0.04472516	    -24.41895995	     10.00609475	     -6.42950285	     27.83530369	    -13.80681605	     -1.67558334	     -4.63672074
      0.91000000	      2.77982374	      1.01926153	      1.92256648	     -0.30038572	      0.88553125	      0.00680848	     -4.74769830	     -1.41748634	     -2.69523295	    -56.16463779	     -5.25106799	     -6.65082450	     54.97455942	     20.47645376	      5.62942782	     -0.24951185	    -24.52485046	     10.48676080	     -6.45087658	     27.67032494	    -13.83787083	     -2.19862388	     -4.67391740
      0.91500000	      2.70471220	      1.39183592	      1.86707211	     -0.29339609	      0.88605371	      0.00648945	     -3.49159246	     -1.83859762	     -2.58619069	    -58.08884883	     -5.17274665	     -7.03764956	     51.58497547	     20.10516503	      6.00407116	     -0.39651458	    -24.66814240	     11.12496396	     -6.13943330	     26.56422491	    -13.80946484	     -2.65540086	     -4.78983656
      0.92000000	      2.62615672	      1.68833138	      1.76497537	     -0.28644993	      0.88667089	      0.00628821	     -2.22927293	     -2.15630822	     -2.40840469	    -59.86517110	     -5.09764243	     -7.72421999	     50.62618016	     19.70197715	      6.27368000	     -0.57862578	    -24.73171367	     11.73176072	     -5.78925482	     26.28571058	    -13.77217636	     -3.03783413	     -4.80861946
      0.92500000	      2.58630192	      1.98145051	      1.64103325	     -0.27948254	      0.88747201	      0.00611996	     -1.01195450	     -2.46826578	     -2.21160349	    -61.54098301	     -4.77139091	     -8.07818660	     48.42337491	     19.18913987	      6.53742505	     -0.76742374	    -24.66573332	     12.33126975	     -5.49239129	     25.49191576	    -13.77149771	     -3.41634022	     -4.86041438
      0.93000000	      2.60817807	      2.23752033	      1.46256466	     -0.27255535	      0.88844285	      0.00605108	      0.13658620	     -2.72903708	     -1.96843169	    -63.07545901	     -4.38421073	     -8.60222509	     48.05352603	     18.57886592	      6.74426663	     -1.00725050	    -24.52774817	     12.80467612	     -5.34945561	     25.39404862	    -13.83787853	     -3.76103593	     -4.83561093
      0.93500000	      2.56998158	      2.42772714	      1.27237765	     -0.26565722	      0.88939572	      0.00602014	      1.35664125	     -2.90517637	     -1.70158239	    -64.51098848	     -3.80781747	     -8.93397808	     47.36343535	     18.01720926	      6.87459400	     -1.25745248	    -24.35449266	     13.35566523	     -5.02116715	     25.18873974	    -13.82839317	     -4.03186092	     -4.77519283
